<?xml version="1.0" encoding="utf-8"?>
<!-- Generator: Adobe Illustrator 24.1.1, SVG Export Plug-In . SVG Version: 6.00 Build 0)  -->
<svg version="1.1" id="Capa_1" xmlns="http://www.w3.org/2000/svg" xmlns:xlink="http://www.w3.org/1999/xlink" x="0px" y="0px"
	 viewBox="0 0 1250 1251" style="enable-background:new 0 0 1250 1251;" xml:space="preserve">
<style type="text/css">
	.st0{fill:#3AAA35;}
	.st1{fill:url(#SVGID_1_);}
	.st2{fill:url(#SVGID_2_);}
	.st3{fill:url(#SVGID_3_);}
	.st4{fill:url(#SVGID_4_);}
	.st5{fill:url(#SVGID_5_);}
	.st6{fill:#009ADE;}
	.st7{fill:#70706F;}
	.st8{fill:#00B2E3;}
	.st9{fill:#0082CA;}
	.st10{fill:#FFFFFF;}
	.st11{fill:url(#SVGID_6_);}
	.st12{fill:url(#SVGID_7_);}
	.st13{fill:#49546F;}
	.st14{fill:url(#SVGID_8_);}
	.st15{fill:url(#SVGID_9_);}
	.st16{fill:url(#SVGID_10_);}
	.st17{fill:url(#SVGID_11_);}
	.st18{fill:url(#SVGID_12_);}
	.st19{fill:url(#SVGID_13_);}
	.st20{fill:url(#SVGID_14_);}
	.st21{fill:url(#SVGID_15_);}
	.st22{fill:url(#SVGID_16_);}
	.st23{fill:url(#SVGID_17_);}
	.st24{fill:url(#SVGID_18_);}
	.st25{fill:url(#SVGID_19_);}
	.st26{fill:url(#SVGID_20_);}
	.st27{fill:url(#SVGID_21_);}
</style>
<g>
	<path class="st0" d="M2529.22,861.31c-6.18,0-11,2.44-14.48,7.33c-3.48,4.89-5.22,11.53-5.22,19.95v47.46h-28.42v-99.38h28.42
		v18.44h0.36c4.5-13.46,12.59-20.19,24.28-20.19h4.69v26.43L2529.22,861.31z"/>
</g>
<g>
	<path class="st0" d="M4805.25,937l-3.71-12.43h-18.64L4779.2,937h-11.68l18.05-52.42h13.25l18.12,52.42H4805.25z M4798.96,915.29
		c-3.43-11.26-5.36-17.63-5.79-19.1c-0.43-1.48-0.74-2.64-0.93-3.5c-0.77,3.05-2.97,10.58-6.61,22.6H4798.96z"/>
	<path class="st0" d="M4865.79,910.4c0,8.59-2.4,15.18-7.19,19.75c-4.79,4.57-11.71,6.86-20.76,6.86h-14.48V884.8h16.05
		c8.35,0,14.83,2.25,19.45,6.75C4863.48,896.05,4865.79,902.33,4865.79,910.4z M4854.53,910.69c0-11.21-4.85-16.82-14.55-16.82
		h-5.77v34h4.65C4849.31,927.86,4854.53,922.14,4854.53,910.69z"/>
	<path class="st0" d="M4898.04,937l-12.31-40.96h-0.32c0.44,8.33,0.67,13.89,0.67,16.68V937h-9.69V884.8h14.76l12.1,39.92h0.21
		l12.83-39.92h14.76V937h-10.11v-24.71c0-1.17,0.02-2.51,0.05-4.04s0.19-5.57,0.47-12.14h-0.31L4907.97,937H4898.04z"/>
	<path class="st0" d="M4943.92,937V884.8h10.84V937H4943.92z"/>
	<path class="st0" d="M5013,937h-13.78l-22.24-39.5h-0.32c0.44,6.98,0.67,11.95,0.67,14.93V937h-9.69V884.8h13.67l22.21,39.1h0.24
		c-0.35-6.79-0.52-11.58-0.52-14.39V884.8h9.76V937z"/>
</g>
<g>
	<linearGradient id="SVGID_1_" gradientUnits="userSpaceOnUse" x1="6242.5679" y1="891.5839" x2="6242.5679" y2="938.0816">
		<stop  offset="0" style="stop-color:#00A7E1"/>
		<stop  offset="0.495" style="stop-color:#005087"/>
		<stop  offset="0.6413" style="stop-color:#00649D"/>
		<stop  offset="0.9437" style="stop-color:#0096D4"/>
		<stop  offset="1" style="stop-color:#00A0DF"/>
	</linearGradient>
	<path class="st1" d="M6255.6,921.34l-3.71-12.43h-18.64l-3.71,12.43h-11.68l18.05-52.42h13.25l18.12,52.42H6255.6z M6249.3,899.63
		c-3.43-11.26-5.36-17.63-5.79-19.1c-0.43-1.48-0.74-2.64-0.93-3.5c-0.77,3.05-2.97,10.58-6.61,22.6H6249.3z"/>
	<linearGradient id="SVGID_2_" gradientUnits="userSpaceOnUse" x1="6294.9224" y1="891.5839" x2="6294.9224" y2="938.0816">
		<stop  offset="0" style="stop-color:#00A7E1"/>
		<stop  offset="0.495" style="stop-color:#005087"/>
		<stop  offset="0.6413" style="stop-color:#00649D"/>
		<stop  offset="0.9437" style="stop-color:#0096D4"/>
		<stop  offset="1" style="stop-color:#00A0DF"/>
	</linearGradient>
	<path class="st2" d="M6316.13,894.73c0,8.59-2.4,15.18-7.19,19.75c-4.79,4.57-11.71,6.86-20.76,6.86h-14.48v-52.21h16.05
		c8.35,0,14.83,2.25,19.45,6.75C6313.83,880.38,6316.13,886.66,6316.13,894.73z M6304.87,895.02c0-11.21-4.85-16.82-14.55-16.82
		h-5.77v34h4.65C6299.65,912.2,6304.87,906.47,6304.87,895.02z"/>
	<linearGradient id="SVGID_3_" gradientUnits="userSpaceOnUse" x1="6354.0635" y1="891.5839" x2="6354.0635" y2="938.0816">
		<stop  offset="0" style="stop-color:#00A7E1"/>
		<stop  offset="0.495" style="stop-color:#005087"/>
		<stop  offset="0.6413" style="stop-color:#00649D"/>
		<stop  offset="0.9437" style="stop-color:#0096D4"/>
		<stop  offset="1" style="stop-color:#00A0DF"/>
	</linearGradient>
	<path class="st3" d="M6348.38,921.34l-12.31-40.96h-0.32c0.44,8.33,0.67,13.89,0.67,16.68v24.28h-9.69v-52.21h14.76l12.1,39.92
		h0.21l12.83-39.92h14.76v52.21h-10.11v-24.71c0-1.17,0.02-2.51,0.05-4.04s0.19-5.57,0.47-12.14h-0.31l-13.18,40.89H6348.38z"/>
	<linearGradient id="SVGID_4_" gradientUnits="userSpaceOnUse" x1="6399.686" y1="891.5839" x2="6399.686" y2="938.0816">
		<stop  offset="0" style="stop-color:#00A7E1"/>
		<stop  offset="0.495" style="stop-color:#005087"/>
		<stop  offset="0.6413" style="stop-color:#00649D"/>
		<stop  offset="0.9437" style="stop-color:#0096D4"/>
		<stop  offset="1" style="stop-color:#00A0DF"/>
	</linearGradient>
	<path class="st4" d="M6394.27,921.34v-52.21h10.84v52.21H6394.27z"/>
	<linearGradient id="SVGID_5_" gradientUnits="userSpaceOnUse" x1="6440.6572" y1="891.5839" x2="6440.6572" y2="938.0816">
		<stop  offset="0" style="stop-color:#00A7E1"/>
		<stop  offset="0.495" style="stop-color:#005087"/>
		<stop  offset="0.6413" style="stop-color:#00649D"/>
		<stop  offset="0.9437" style="stop-color:#0096D4"/>
		<stop  offset="1" style="stop-color:#00A0DF"/>
	</linearGradient>
	<path class="st5" d="M6463.34,921.34h-13.78l-22.24-39.5H6427c0.44,6.98,0.67,11.95,0.67,14.93v24.57h-9.69v-52.21h13.67
		l22.21,39.1h0.24c-0.35-6.79-0.52-11.58-0.52-14.39v-24.71h9.76V921.34z"/>
</g>
<g>
	<path class="st6" d="M327.05,956.11c0,3.52,0.87,6.19,2.62,8c1.75,1.81,4.08,2.72,7.01,2.72c1.46,0,2.93-0.13,4.39-0.41
		c1.46-0.27,2.93-0.54,4.39-0.81v18.03c-3.21,0.81-6.61,1.47-10.18,1.99c-3.58,0.52-7.31,0.77-11.2,0.77
		c-3.55,0-6.78-0.57-9.68-1.71c-2.9-1.14-5.38-2.77-7.44-4.91c-2.06-2.14-3.65-4.72-4.78-7.76c-1.13-3.03-1.69-6.44-1.69-10.23
		V861.17h26.54V956.11z"/>
	<path class="st7" d="M810.94,985.26c-4.06,2.14-10.17,3.21-18.34,3.21c-19.36,0-29.04-10.05-29.04-30.14v-42.21h-14.43v-18.77
		h14.43v-23.09h25.33v23.09h22.05v18.77h-22.35v37.43c0,9.27,3.68,13.9,11.04,13.9c2.9,0,6.97,0.1,11.3-1.22V985.26z"/>
	<path class="st6" d="M284.21,941.43c0,14.67-1.28,26.15-9.12,34.43c-7.85,8.28-21.42,12.42-35.42,12.42
		c-8.77,0-19.37-1.9-26.08-5.68c-6.7-3.79-11.85-9.23-15.45-16.33c-3.6-7.09-2.53-15.37-2.53-24.83c0-14.73,1.03-26.18,8.82-34.35
		c7.79-8.17,21.61-12.26,35.72-12.26c8.77,0,19.15,1.88,25.86,5.64c6.7,3.76,11.85,9.16,15.45,16.2
		C285.05,923.72,284.21,931.97,284.21,941.43z M221.03,941.43c0,8.92,1.48,15.67,4.45,20.24c2.97,4.57,7.81,6.85,14.51,6.85
		c6.65,0,11.43-2.27,14.34-6.81c2.91-4.54,4.37-11.3,4.37-20.28c0-8.92-1.47-15.61-4.41-20.08c-2.94-4.46-7.76-6.69-14.47-6.69
		c-6.65,0-11.44,2.22-14.38,6.65C222.5,925.75,221.03,932.46,221.03,941.43z"/>
	<path class="st6" d="M422.55,984.37l-3.28-10.87h-1.28c-2.61,3.95-6.32,7.01-11.12,9.16c-4.8,2.15-10.27,3.23-16.4,3.23
		c-10.51,0-18.43-2.67-23.76-8.02c-5.34-5.35-8-13.04-8-23.07v-55.42h24.4v49.64c0,6.13,1.15,10.73,3.44,13.8
		c2.29,3.07,5.95,4.6,10.96,4.6c6.83,0,11.76-2.17,14.8-6.5c3.04-4.33,4.56-11.52,4.56-21.55v-39.98h24.4v84.99H422.55z"/>
	<path class="st6" d="M134.46,985.89c-12.64,0-21.5-0.7-34.33-2.13l-0.61-0.11c-3.26-0.8-5.29-3.36-5.29-6.67v-13.33l6.77,0.08
		h38.36c15.29,0,15.29-5.07,15.29-8.77v-2.85c0-6.35-1.33-9.13-8.79-12.1l-36.25-14.37c-15.26-5.81-17.22-18.83-17.22-29.53v-3.59
		c0-9.49,3.3-17.39,9.28-22.24c2.53-2.15,5.88-3.82,10.48-5.19c7.94-2.43,14.89-2.89,24.92-2.89c7.65,0,17.55,0.75,30.25,2.28
		c3.72,0.4,6.17,2.89,6.17,6.32l-0.06,9.21l-0.11,4.23l-6.35,0.09l-34.49,0c-15.44,0-15.44,6.25-15.44,8.92v2.54
		c0,5.92,1.19,8.24,8.64,11.2l33.37,13.49c14.3,5.79,20.4,14.8,20.4,30.12v4.79c0,9.56-3.42,17.52-9.63,22.42
		c-2.73,2.32-6.2,4.09-10.48,5.31C151.81,985.16,145.09,985.89,134.46,985.89z"/>
	<path class="st7" d="M502.46,985.89c-12.64,0-21.5-0.7-34.33-2.13l-0.61-0.11c-3.26-0.8-5.29-3.36-5.29-6.67v-13.33l6.77,0.08
		h38.36c15.29,0,15.29-5.07,15.29-8.77v-2.85c0-6.35-1.33-9.13-8.79-12.1l-36.25-14.37c-15.26-5.81-17.22-18.83-17.22-29.53v-3.59
		c0-9.49,3.3-17.39,9.28-22.24c2.53-2.15,5.88-3.82,10.48-5.19c7.94-2.43,14.89-2.89,24.92-2.89c7.65,0,17.55,0.75,30.25,2.28
		c3.72,0.4,6.17,2.89,6.17,6.32l-0.06,9.21l-0.11,4.23l-6.35,0.09l-34.49,0c-15.44,0-15.44,6.25-15.44,8.92v2.54
		c0,5.92,1.19,8.24,8.64,11.2l33.37,13.49c14.3,5.79,20.4,14.8,20.4,30.12v4.79c0,9.56-3.42,17.52-9.63,22.42
		c-2.73,2.32-6.2,4.09-10.48,5.31C519.81,985.16,513.09,985.89,502.46,985.89z"/>
	<path class="st7" d="M697.48,988.72c-11.98,0-19.53-0.52-31.69-1.6l-0.58-0.08c-3.09-0.6-5.02-2.53-5.02-5.02v-10.03l6.42,0.06
		h35.51c14.49,0,14.49-3.82,14.49-6.6v-2.14c0-4.78-1.26-6.87-8.33-9.11l-34.36-10.82c-14.46-4.37-16.32-14.18-16.32-22.23v-2.71
		c0-7.15,3.12-13.09,8.79-16.74c2.4-1.62,5.58-2.87,9.93-3.9c7.53-1.83,14.12-2.18,23.62-2.18c7.26,0,16.63,0.56,28.67,1.72
		c3.53,0.3,5.84,2.17,5.84,4.76l-0.06,6.94l-0.1,3.19l-6.02,0.07l-32.69,0c-14.64,0-14.64,4.71-14.64,6.72v1.92
		c0,4.46,1.13,6.2,8.19,8.44l29.51,10.15c13.56,4.36,19.34,11.14,19.34,22.68v3.61c0,7.2-3.24,13.19-9.13,16.88
		c-2.59,1.75-5.87,3.08-9.93,4C711.8,988.17,707.55,988.72,697.48,988.72z"/>
	<path class="st7" d="M1117.1,988.72c-11.98,0-19.53-0.52-31.69-1.6l-0.58-0.08c-3.09-0.6-5.02-2.53-5.02-5.02v-10.03l6.42,0.06
		h35.51c14.49,0,14.49-3.82,14.49-6.6v-2.14c0-4.78-1.26-6.87-8.33-9.11l-34.36-10.82c-14.46-4.37-16.32-14.18-16.32-22.23v-2.71
		c0-7.15,3.12-13.09,8.79-16.74c2.4-1.62,5.58-2.87,9.93-3.9c7.53-1.83,14.12-2.18,23.62-2.18c7.26,0,16.63,0.56,28.67,1.72
		c3.53,0.3,5.84,2.17,5.84,4.76l-0.06,6.94l-0.1,3.19l-6.02,0.07l-32.69,0c-14.64,0-14.64,4.71-14.64,6.72v1.92
		c0,4.46,1.13,6.2,8.19,8.44l29.51,10.15c13.56,4.36,19.34,11.14,19.34,22.68v3.61c0,7.2-3.24,13.19-9.13,16.88
		c-2.59,1.75-5.87,3.08-9.93,4C1131.42,988.17,1127.18,988.72,1117.1,988.72z"/>
	<path class="st7" d="M553.82,899.38h27.62l17.93,67c0,0,1.32,2.87,2.98,2.87c1.65,0,2.42-3.75,2.42-3.75l17.23-66.12h27.92
		l-22.04,64.35c0,0-15.28,64.35-55.24,58.18c0,0-7.1-14.6,0.51-16.31c20.94-4.7,21.82-20.28,21.82-20.28s-8.37,1.1-10.58-1.54
		C582.17,981.15,553.82,899.38,553.82,899.38z"/>
	<path class="st7" d="M925.98,899.38v84.49h25.12v-59.06c0,0,29.97-17.19,29.97,0s0,59.06,0,59.06h24.68v-59.06
		c0,0,28.21-16.31,28.21-1.76s0,62.15,0,62.15h26.01v-69.64c0,0-1.76-19.19-23.8-19.95c-22.04-0.77-32.18,13.78-32.18,13.78
		s-15.43-29.53-55.98,1.32l-1.76-11.32H925.98z"/>
	<path class="st7" d="M887.86,950.59c17.19-0.22,20.5-18.12,20.5-18.12s6.17-35.8-41.87-35.8c-46.43,0-42.76,44.81-42.76,44.81
		c-0.17,35.19,23.14,48.12,43.74,48.1c20.6-0.02,38.03-7.69,38.03-7.69s-1.1-12.34-1.76-14.55s-24.68,1.98-24.68,1.98
		c-32.4,2.2-28.02-18.73-28.02-18.73S870.67,950.81,887.86,950.59z M867.47,914.67c6.72,0,16.86,1.32,16.42,10.8
		s-9.48,9.04-9.48,9.04h-23.36C850.39,917.97,860.75,914.67,867.47,914.67z"/>
	<g>
		<path class="st6" d="M752.82,352.6L448.7,471.88c-11.42,4.52-20.59-5.48-20.34-22.22l0.97-65.95
			c0.25-16.74,9.81-34.03,21.23-38.41L754.59,229.6c10.76-4.13,19.36,5.76,19.13,21.96l-0.92,63.84
			C772.57,331.61,763.59,348.35,752.82,352.6z"/>
		<path class="st6" d="M820.89,690.82l-224.62,87.3c-11.33,4.52-20.42-5.48-20.18-22.22l0.96-65.95
			c0.24-16.74,9.73-34.03,21.06-38.41l212.21-77.91c10.68-4.13,19.2,5.76,18.97,21.96l-0.91,63.84
			C828.16,675.63,831.57,686.57,820.89,690.82z"/>
		<g>
			<path class="st8" d="M817.4,516.06c-6.05-2.06-91.79-34.39-175.72-66.09c-14.14-0.53-37.5,1-38.72,16.73
				c-1.76,22.63,66.26,49.81,66.26,89.04c0,29.92-35.87,35.9-52.91,37.06c85.97,32.31,170.82,64.32,170.82,64.32
				s25.38,10.69,28.43,35.63c0,0,6.1-2.09,7.77-3.12c0,0,5.81-2.47,5.81-13.67s0-139.91,0-139.91S829.45,520.17,817.4,516.06z"/>
			<path class="st8" d="M628.53,561.9c0-25.57-61.12-36.14-64.65-81.4c-2.84-36.51,37.9-39.74,53.76-39.62
				c-74.28-28.06-140.81-53.24-140.81-53.24s-31.48-19.55-38.53-36.15c0,0-10.09,5.59-10.09,13.23v145.16
				c0,0-0.74,13.55,10.72,16.86c5.09,1.47,74.47,27.39,149.97,55.74C599.51,583.07,628.53,582.78,628.53,561.9z"/>
		</g>
		<path class="st9" d="M490.94,330.65c0.18-0.1,0.03-0.19-0.14-0.31c-1.04-0.74-56.79,19.51-57.31,25.56
			c-0.59,6.76,16.75,19.1,43.49,31.74c0,0-25.27-17.04-20.57-28.94C460.46,348.42,484.46,334.31,490.94,330.65z"/>
		<path class="st9" d="M768.7,650.1c0,0,40.39,10.74,50.91,26.51c7.27,10.9,1.87,14.87-17.45,21.71c-14.4,5.1,13.44-6.83,8.49-18.73
			C803.83,663.25,768.7,650.1,768.7,650.1z"/>
	</g>
</g>
<path class="st6" d="M1810.95,895.76l15.93,16.98c-9.12,9.09-17.74,15.39-25.85,18.91c-8.11,3.51-17.38,5.27-27.78,5.27
	c-19.19,0-34.91-6.21-47.13-18.64c-12.23-12.43-18.34-28.35-18.34-47.78c0-12.57,2.78-23.74,8.35-33.51
	c5.57-9.77,13.54-17.63,23.92-23.57c10.38-5.94,21.56-8.91,33.53-8.91c10.18,0,19.99,2.2,29.42,6.59
	c9.43,4.39,17.56,10.64,24.39,18.74l-16.44,16l-2.23,2.1c-7.16-10.23-19.04-16.92-32.48-16.92c-21.88,0-39.63,17.74-39.63,39.63
	s17.74,39.63,39.63,39.63c13.12,0,24.74-6.37,31.96-16.19l0.39-0.5L1810.95,895.76z"/>
<path class="st6" d="M1855.33,796.33c4.43,0,8.23,1.64,11.4,4.92c3.17,3.28,4.75,7.25,4.75,11.91c0,4.6-1.57,8.52-4.71,11.77
	c-3.14,3.25-6.89,4.87-11.26,4.87c-4.49,0-8.32-1.65-11.49-4.96c-3.17-3.31-4.75-7.33-4.75-12.05c0-4.54,1.57-8.41,4.71-11.63
	C1847.12,797.94,1850.9,796.33,1855.33,796.33z"/>
<rect x="1842.55" y="837.6" class="st6" width="27.58" height="98.52"/>
<path class="st6" d="M2163.42,859.82c-4.63-7.83-11.07-14.02-19.32-18.59c-8.26-4.56-17.07-6.85-26.45-6.85
	c-12.97,0-24.46,4.39-34.45,13.16c-11.39,10.08-17.09,22.68-17.09,37.79c0,14.11,5.04,26.1,15.12,35.97
	c10.08,9.87,22.25,14.81,36.5,14.81c9.69,0,18.55-2.24,26.59-6.71c8.04-4.48,14.39-10.69,19.05-18.63
	c4.66-7.94,6.99-16.48,6.99-25.61C2170.36,876.09,2168.05,867.64,2163.42,859.82z M2135.59,905.61c-4.68,5.28-10.55,7.92-17.6,7.92
	c-7.05,0-12.88-2.61-17.48-7.83c-4.6-5.22-6.9-12.03-6.9-20.45c0-8.18,2.33-14.9,6.98-20.14c4.65-5.25,10.48-7.87,17.48-7.87
	c7.16,0,13.04,2.59,17.64,7.78c4.6,5.19,6.9,11.93,6.9,20.23C2142.61,893.55,2140.27,900.34,2135.59,905.61z"/>
<path class="st0" d="M2459.62,859.82c-4.63-7.83-11.07-14.02-19.32-18.59c-8.26-4.56-17.07-6.85-26.45-6.85
	c-12.97,0-24.46,4.39-34.45,13.16c-11.39,10.08-17.09,22.68-17.09,37.79c0,14.11,5.04,26.1,15.12,35.97
	c10.08,9.87,22.25,14.81,36.5,14.81c9.69,0,18.55-2.24,26.59-6.71c8.04-4.48,14.39-10.69,19.05-18.63
	c4.66-7.94,6.99-16.48,6.99-25.61C2466.57,876.09,2464.25,867.64,2459.62,859.82z M2431.79,905.61c-4.68,5.28-10.55,7.92-17.6,7.92
	c-7.05,0-12.88-2.61-17.48-7.83c-4.6-5.22-6.9-12.03-6.9-20.45c0-8.18,2.33-14.9,6.98-20.14c4.65-5.25,10.48-7.87,17.48-7.87
	c7.16,0,13.04,2.59,17.64,7.78c4.6,5.19,6.9,11.93,6.9,20.23C2438.82,893.55,2436.47,900.34,2431.79,905.61z"/>
<path class="st0" d="M2232.26,804c-14.02-0.52-25.14,3.95-33.32,11.84c-8.19,7.89-12.28,17.59-12.28,29.08
	c0,11.37,3.43,20,10.28,25.91c6.86,5.9,18.35,10.56,34.47,13.98c8.65,1.83,14.48,3.79,17.51,5.88c3.03,2.08,4.54,5.02,4.54,8.81
	c0,3.73-1.67,6.93-5,9.62c-3.33,2.69-8.43,4.71-15.19,4.03c-14.84-1.49-35.66-19.26-35.66-19.26l-17,20.63
	c0,0,22.25,22.58,50.62,22.79c17.3,0.13,30.36-4.26,39.17-12.79c8.81-8.52,13.21-18.63,13.21-30.31c0-7.45-2.05-14.19-6.16-20.22
	c-4.11-6.03-9.16-10.4-15.15-13.12c-5.99-2.72-15.44-5.4-28.35-8.06c-7.72-1.58-12.68-3.45-14.87-5.59
	c-2.19-2.15-3.29-4.77-3.29-7.86c0-7.77,5.86-11.61,17.59-11.65c17.76-0.07,32.99,13.82,32.99,13.82l13.75-20.5
	C2280.11,821,2265.66,805.25,2232.26,804z"/>
<path class="st6" d="M2000.49,808h27.29v96.33c0,0-0.17,9,10,9s13.67-6.33,13.67-6.33l9.5,18.17c0,0-10.83,10.95-28.33,10.95
	s-31-12.62-31.5-23.62S2000.49,808,2000.49,808z"/>
<path class="st6" d="M1942.86,914c-19.5,4.5-22.5-8.25-22.5-8.25l64.25-26.25c-3.75-48.75-49.25-48-64-41.9
	c-12.96,5.36-34.5,18.65-34.5,47.65s18.25,50.87,50.25,50.87s43.75-19.62,43.75-19.62l-16.25-16
	C1963.86,900.5,1962.36,909.5,1942.86,914z M1927.69,860.76c16.25-6.5,27.92,3.99,28.92,8.99l-44,17.11
	C1912.61,886.86,1911.44,867.26,1927.69,860.76z"/>
<path class="st0" d="M2604.01,914c-19.5,4.5-22.5-8.25-22.5-8.25l64.25-26.25c-3.75-48.75-49.25-48-64-41.9
	c-12.96,5.36-34.5,18.65-34.5,47.65s18.25,50.87,50.25,50.87s43.75-19.62,43.75-19.62l-16.25-16
	C2625.01,900.5,2623.51,909.5,2604.01,914z M2588.84,860.76c16.25-6.5,27.92,3.99,28.92,8.99l-44,17.11
	C2573.76,886.86,2572.59,867.26,2588.84,860.76z"/>
<path class="st0" d="M2348.02,907c0,0-3.5,6.33-13.67,6.33c-10.17,0-10-9-10-9V857.5h23.43v-20.83h-23.43V808h-27.29
	c0,0,0.13,93.5,0.63,104.5s14,23.62,31.5,23.62s28.33-10.95,28.33-10.95L2348.02,907z"/>
<path class="st6" d="M2339.11,694h-267.67c-6.8,0-12.75-4.58-14.5-11.15l-91.7-345.47l-74.56-23.05
	c-7.92-2.45-12.35-10.85-9.9-18.76c2.45-7.92,10.85-12.35,18.76-9.9l82.5,25.5c4.94,1.53,8.74,5.49,10.07,10.48L2082.98,664h256.13
	c8.28,0,15,6.72,15,15S2347.4,694,2339.11,694z"/>
<path class="st6" d="M2395.77,623.49h-343.04c-8.28,0-15-6.72-15-15s6.72-15,15-15h331.8l53.5-183.38h-42.26c-8.28,0-15-6.72-15-15
	s6.72-15,15-15h62.26c4.72,0,9.17,2.22,12,6c2.83,3.78,3.72,8.67,2.4,13.2l-62.26,213.38
	C2408.31,619.09,2402.44,623.49,2395.77,623.49z"/>
<circle class="st6" cx="2082.99" cy="683.55" r="41"/>
<circle class="st10" cx="2083.99" cy="683.5" r="26.5"/>
<circle class="st6" cx="2336.06" cy="683.55" r="41"/>
<circle class="st10" cx="2337.06" cy="683.5" r="26.5"/>
<path class="st6" d="M5073.85,594.97h-282.26c-6.82,0-12.34-5.53-12.34-12.34c0-6.82,5.53-12.34,12.34-12.34h273.01l44.02-150.89
	h-34.77c-6.82,0-12.34-5.53-12.34-12.34c0-6.82,5.53-12.34,12.34-12.34h51.23c3.89,0,7.54,1.83,9.87,4.94
	c2.33,3.11,3.06,7.13,1.97,10.86l-51.23,175.57C5084.16,591.35,5079.34,594.97,5073.85,594.97z"/>
<g>
	<path class="st0" d="M5176.65,786.2c-5.03,0-8.97,1.99-11.81,5.97c-2.84,3.98-4.25,9.4-4.25,16.26v38.69h-23.17v-81.02h23.17v15.03
		h0.29c3.67-10.97,10.27-16.46,19.8-16.46h3.82v21.54L5176.65,786.2z"/>
</g>
<path class="st6" d="M4591.08,814.29l12.99,13.84c-7.44,7.41-14.46,12.55-21.08,15.41c-6.62,2.86-14.17,4.3-22.65,4.3
	c-15.65,0-28.46-5.07-38.42-15.2s-14.95-23.12-14.95-38.95c0-10.25,2.27-19.35,6.81-27.32c4.54-7.97,11.04-14.37,19.5-19.21
	c8.46-4.84,17.57-7.27,27.34-7.27c8.3,0,16.3,1.79,23.98,5.37c7.69,3.58,14.31,8.67,19.88,15.28l-13.4,13.04l-1.82,1.71
	c-5.84-8.34-15.52-13.8-26.48-13.8c-17.84,0-32.3,14.46-32.3,32.3s14.46,32.3,32.3,32.3c10.69,0,20.17-5.2,26.05-13.2l0.32-0.4
	L4591.08,814.29z"/>
<path class="st6" d="M4626.74,734.07c3.38,0,6.27,1.25,8.69,3.75c2.41,2.5,3.62,5.52,3.62,9.07c0,3.51-1.2,6.49-3.59,8.97
	c-2.39,2.47-5.25,3.71-8.58,3.71c-3.42,0-6.34-1.26-8.76-3.78c-2.41-2.52-3.62-5.58-3.62-9.18c0-3.46,1.19-6.41,3.59-8.86
	C4620.48,735.29,4623.37,734.07,4626.74,734.07z"/>
<rect x="4616.85" y="766.87" class="st6" width="22.48" height="80.32"/>
<path class="st6" d="M4878.43,784.99c-3.77-6.38-9.03-11.43-15.75-15.15c-6.73-3.72-13.92-5.58-21.56-5.58
	c-10.58,0-19.94,3.58-28.08,10.73c-9.29,8.22-13.93,18.49-13.93,30.81c0,11.5,4.11,21.28,12.33,29.33
	c8.22,8.05,18.14,12.07,29.76,12.07c7.9,0,15.12-1.82,21.68-5.47c6.55-3.65,11.73-8.71,15.53-15.19c3.8-6.48,5.7-13.44,5.7-20.88
	C4884.09,798.25,4882.2,791.37,4878.43,784.99z M4855.74,822.32c-3.82,4.3-8.6,6.45-14.35,6.45c-5.75,0-10.5-2.13-14.25-6.38
	c-3.75-4.25-5.62-9.81-5.62-16.67c0-6.67,1.9-12.14,5.69-16.42c3.79-4.28,8.54-6.42,14.25-6.42c5.84,0,10.63,2.12,14.38,6.34
	c3.75,4.23,5.63,9.73,5.63,16.49C4861.47,812.49,4859.56,818.02,4855.74,822.32z"/>
<path class="st0" d="M5119.91,784.99c-3.77-6.38-9.03-11.43-15.75-15.15c-6.73-3.72-13.92-5.58-21.56-5.58
	c-10.58,0-19.94,3.58-28.08,10.73c-9.29,8.22-13.93,18.49-13.93,30.81c0,11.5,4.11,21.28,12.33,29.33
	c8.22,8.05,18.14,12.07,29.76,12.07c7.9,0,15.12-1.82,21.68-5.47c6.55-3.65,11.73-8.71,15.53-15.19c3.8-6.48,5.7-13.44,5.7-20.88
	C5125.57,798.25,5123.68,791.37,5119.91,784.99z M5097.22,822.32c-3.82,4.3-8.6,6.45-14.35,6.45c-5.75,0-10.5-2.13-14.25-6.38
	c-3.75-4.25-5.62-9.81-5.62-16.67c0-6.67,1.9-12.14,5.69-16.42c3.79-4.28,8.54-6.42,14.25-6.42c5.84,0,10.63,2.12,14.38,6.34
	c3.75,4.23,5.63,9.73,5.63,16.49C5102.95,812.49,5101.04,818.02,5097.22,822.32z"/>
<path class="st0" d="M4934.55,739.48c-11.43-0.43-20.49,3.22-27.17,9.65c-6.68,6.44-10.01,14.34-10.01,23.71
	c0,9.27,2.79,16.31,8.38,21.12c5.59,4.81,14.96,8.61,28.1,11.4c7.05,1.5,11.81,3.09,14.27,4.79c2.47,1.7,3.7,4.09,3.7,7.18
	c0,3.04-1.36,5.65-4.08,7.84c-2.72,2.19-6.87,3.84-12.38,3.28c-12.1-1.22-29.07-15.7-29.07-15.7l-13.86,16.81
	c0,0,18.14,18.41,41.27,18.58c14.11,0.11,24.75-3.47,31.93-10.42c7.18-6.95,10.77-15.19,10.77-24.71c0-6.08-1.67-11.57-5.02-16.49
	c-3.35-4.92-7.47-8.48-12.35-10.69c-4.89-2.21-12.59-4.41-23.11-6.57c-6.29-1.29-10.33-2.81-12.12-4.56
	c-1.79-1.75-2.68-3.89-2.68-6.41c0-6.33,4.78-9.46,14.34-9.5c14.48-0.06,26.89,11.27,26.89,11.27l11.21-16.71
	C4973.56,753.34,4961.78,740.5,4934.55,739.48z"/>
<path class="st6" d="M4745.6,742.74h22.25v78.54c0,0-0.14,7.34,8.15,7.34c8.29,0,11.14-5.16,11.14-5.16l7.75,14.81
	c0,0-8.83,8.93-23.1,8.93s-25.27-10.29-25.68-19.25C4745.7,818.97,4745.6,742.74,4745.6,742.74z"/>
<path class="st6" d="M4698.62,829.16c-15.9,3.67-18.34-6.73-18.34-6.73l52.38-21.4c-3.06-39.74-40.15-39.13-52.18-34.16
	c-10.57,4.37-28.13,15.21-28.13,38.85s14.88,41.47,40.97,41.47c26.09,0,35.67-15.99,35.67-15.99l-13.25-13.04
	C4715.74,818.15,4714.52,825.49,4698.62,829.16z M4686.26,785.75c13.25-5.3,22.76,3.26,23.58,7.33l-35.87,13.95
	C4673.96,807.03,4673.01,791.05,4686.26,785.75z"/>
<path class="st0" d="M5244.27,829.81c-16.17,3.73-18.65-6.84-18.65-6.84l53.27-21.76c-3.11-40.42-40.83-39.8-53.06-34.74
	c-10.75,4.44-28.6,15.46-28.6,39.51c0,24.04,15.13,42.17,41.66,42.17s36.27-16.26,36.27-16.26l-13.47-13.27
	C5261.68,818.62,5260.43,826.08,5244.27,829.81z M5231.69,785.67c13.47-5.39,23.15,3.31,23.98,7.46l-36.48,14.18
	C5219.19,807.31,5218.22,791.06,5231.69,785.67z"/>
<path class="st0" d="M5028.92,823.45c0,0-2.85,5.16-11.14,5.16c-8.29,0-8.15-7.34-8.15-7.34V783.1h19.1v-16.98h-19.1v-23.37h-22.25
	c0,0,0.1,76.23,0.51,85.19c0.41,8.97,11.41,19.25,25.68,19.25c14.27,0,23.1-8.93,23.1-8.93L5028.92,823.45z"/>
<path class="st6" d="M2337.85,413.3c-3.84-38.26-36.99-67.44-75.93-65.76c-5.36,0.23-10.68,1.04-15.82,2.41
	c-1.63,0.43-3.05,1.25-4.21,2.32c-11.61-7.4-25.1-11.38-39.2-11.38c-35.07,0-64.45,24.8-71.55,57.79c-1.61-0.31-3.31-0.24-4.98,0.3
	c-16.81,5.44-31.28,14.82-41.85,27.12c-11.77,13.69-17.99,30.34-17.99,48.13c0,45.91,36.71,83.26,81.83,83.26h162.46
	c46.03,0,81.79-38.97,81.83-72.49C2392.5,446.86,2374.6,423.3,2337.85,413.3z M2310.61,537.5h-162.46
	c-34.1,0-61.83-28.38-61.83-63.26c0-29.26,21.91-47.53,43.35-55.31c0.85,12.93,5.06,25.31,12.34,36.09
	c1.17,1.73,2.43,3.43,3.74,5.06c1.98,2.44,4.87,3.71,7.78,3.71c2.21,0,4.43-0.73,6.28-2.22c4.29-3.47,4.96-9.77,1.49-14.06
	c-0.95-1.18-1.87-2.42-2.72-3.68c-5.94-8.79-9.08-19.07-9.08-29.73c0-29.33,23.86-53.19,53.19-53.19c14.21,0,27.57,5.53,37.61,15.58
	c1.74,1.74,3.37,3.61,4.84,5.56c3.33,4.4,9.6,5.28,14.01,1.94c4.4-3.33,5.28-9.6,1.94-14.01c-0.56-0.74-1.14-1.47-1.72-2.18
	c1.13-0.12,2.26-0.22,3.4-0.26c26.17-1.12,48.73,16.93,54.19,41.63c-4.43,0.25-8.3,3.43-9.23,7.98c-1.1,5.41,2.4,10.69,7.81,11.79
	l6.97,1.42c0.07,0.01,0.15,0.03,0.22,0.04c34.9,6.29,49.77,22.62,49.72,54.6C2372.41,508.62,2343.87,537.5,2310.61,537.5z"/>
<linearGradient id="SVGID_6_" gradientUnits="userSpaceOnUse" x1="3465.436" y1="428.6768" x2="3679.436" y2="742.6769">
	<stop  offset="0" style="stop-color:#00A7E1"/>
	<stop  offset="0.495" style="stop-color:#005087"/>
	<stop  offset="0.6413" style="stop-color:#00649D"/>
	<stop  offset="0.9437" style="stop-color:#0096D4"/>
	<stop  offset="1" style="stop-color:#00A0DF"/>
</linearGradient>
<path class="st11" d="M3661.03,389.02c-5.2-51.88-50.02-91.45-102.69-89.18c-7.24,0.31-14.44,1.41-21.39,3.27
	c-2.2,0.59-4.13,1.7-5.69,3.15c-15.71-10.03-33.94-15.43-53.01-15.43c-47.43,0-87.16,33.64-96.76,78.37
	c-2.17-0.42-4.48-0.32-6.74,0.41c-22.73,7.38-42.3,20.1-56.6,36.78c-15.91,18.57-24.33,41.14-24.33,65.28
	c0,53.05,36.04,97.66,84.45,109.7c-0.04,28.09-0.1,84.67,0.02,91.22c0.17,8.76,15.86,14.05,15.86,14.05
	c63.45,33.21,159.63,25.78,159.63,25.78c-73.37-5.45-138.31-24.29-154.67-36.19s28.26-20.82,115.26-20.82c0.6,0,1.19,0,1.79,0.01
	c-0.72,4.14-0.79,8.66,0.75,12.68c1.69,4.42,5.05,7.67,9.7,9.39c2.38,0.88,4.5,1.23,6.38,1.23c3.2,0,5.66-1,7.38-2.07
	c6.39-3.97,8.77-12.37,9.95-20.01c7.65,0.53,14.9,1.21,21.73,2c-2.16,5.26-5.1,14.76-2.15,22.46c1.69,4.42,5.05,7.67,9.7,9.39
	c2.38,0.88,4.5,1.23,6.38,1.23c3.2,0,5.66-1,7.38-2.07c8.18-5.08,9.79-17.41,10.72-26.11c30.19,5.84,46.35,12.69,46.35,12.69v-94.85
	c49.07-12.08,84.35-56.28,84.4-95.1C3734.94,434.54,3710.74,402.59,3661.03,389.02z M3637.77,556.28l0.03-0.19l8.35-42.25
	c0.83-4.26-1.96-8.41-6.22-9.24l-0.98-0.19c-1.42-0.28-2.82-0.15-4.1,0.29c-0.83-0.63-1.79-1.08-2.84-1.34l-0.52-0.13
	c-1.17-0.29-2.35-0.3-3.47-0.07c-0.9-0.74-1.95-1.27-3.11-1.56l-0.52-0.13c-0.8-0.2-1.61-0.27-2.42-0.22c-1-1.22-2.35-2.11-3.9-2.55
	l-1.08-0.31c-2.02-0.58-4.15-0.34-5.99,0.69c-1.84,1.02-3.17,2.7-3.74,4.7l-13.34,46.03c-2.22-0.52-4.43-1.01-6.64-1.48
	c2.74-4.44,4.9-9.6,6.26-15.27c2.32-9.71,1.87-19.55-1.25-27.7c-3.42-8.94-9.62-14.89-17.45-16.76c-7.83-1.87-16.05,0.65-23.13,7.08
	c-6.46,5.87-11.29,14.45-13.61,24.16c-1.78,7.47-1.85,14.88-0.49,21.47c-60.27-4.24-109.74,7.43-136.82,16.06
	c-44.4-2-79.92-39.67-79.92-85.7c0-39.69,29.63-64.46,58.62-75.01c1.14,17.53,6.85,34.33,16.69,48.94c1.58,2.35,3.28,4.66,5.06,6.86
	c2.67,3.31,6.58,5.04,10.52,5.04c2.99,0,5.99-0.99,8.49-3.02c5.81-4.71,6.71-13.25,2.01-19.07c-1.29-1.6-2.53-3.28-3.68-4.99
	c-8.03-11.92-12.28-25.87-12.28-40.32c0-39.78,32.27-72.14,71.93-72.14c19.21,0,37.28,7.5,50.86,21.13
	c2.35,2.36,4.55,4.89,6.55,7.54c4.5,5.97,12.98,7.15,18.94,2.64c5.96-4.52,7.13-13.02,2.63-19c-0.75-1-1.53-1.99-2.33-2.96
	c1.53-0.16,3.06-0.29,4.6-0.36c35.39-1.51,65.9,22.96,73.28,56.46c-5.99,0.34-11.23,4.66-12.48,10.83
	c-1.49,7.34,3.24,14.5,10.56,15.99l9.42,1.92c0.1,0.02,0.2,0.04,0.29,0.06c47.19,8.53,67.31,30.68,67.24,74.05
	C3707.78,515.02,3676.67,549.52,3637.77,556.28z"/>
<linearGradient id="SVGID_7_" gradientUnits="userSpaceOnUse" x1="3465.436" y1="428.8364" x2="3679.436" y2="742.8364">
	<stop  offset="0" style="stop-color:#FFFFFF"/>
	<stop  offset="0.5767" style="stop-color:#090A0E"/>
	<stop  offset="0.7022" style="stop-color:#020203"/>
</linearGradient>
<path class="st12" d="M3661.03,389.18c-5.2-51.88-50.02-91.45-102.69-89.18c-7.24,0.31-14.44,1.41-21.39,3.27
	c-2.2,0.59-4.13,1.7-5.69,3.15c-15.71-10.03-33.94-15.43-53.01-15.43c-47.43,0-87.16,33.64-96.76,78.37
	c-2.17-0.42-4.48-0.32-6.74,0.41c-22.73,7.38-42.3,20.1-56.6,36.78c-15.91,18.57-24.33,41.14-24.33,65.28
	c0,53.05,36.04,97.66,84.45,109.7c-0.04,28.09-0.1,84.67,0.02,91.22c0.17,8.76,15.86,14.05,15.86,14.05
	c63.45,33.21,159.63,25.78,159.63,25.78c-73.37-5.45-138.31-24.29-154.67-36.19s28.26-20.82,115.26-20.82c0.6,0,1.19,0,1.79,0.01
	c-0.72,4.14-0.79,8.66,0.75,12.68c1.69,4.42,5.05,7.67,9.7,9.39c2.38,0.88,4.5,1.23,6.38,1.23c3.2,0,5.66-1,7.38-2.07
	c6.39-3.97,8.77-12.37,9.95-20.01c7.65,0.53,14.9,1.21,21.73,2c-2.16,5.26-5.1,14.76-2.15,22.46c1.69,4.42,5.05,7.67,9.7,9.39
	c2.38,0.88,4.5,1.23,6.38,1.23c3.2,0,5.66-1,7.38-2.07c8.18-5.08,9.79-17.41,10.72-26.11c30.19,5.84,46.35,12.69,46.35,12.69v-94.85
	c49.07-12.08,84.35-56.28,84.4-95.1C3734.94,434.7,3710.74,402.75,3661.03,389.18z M3637.77,556.44l0.03-0.19l8.35-42.25
	c0.83-4.26-1.96-8.41-6.22-9.24l-0.98-0.19c-1.42-0.28-2.82-0.15-4.1,0.29c-0.83-0.63-1.79-1.08-2.84-1.34l-0.52-0.13
	c-1.17-0.29-2.35-0.3-3.47-0.07c-0.9-0.74-1.95-1.27-3.11-1.56l-0.52-0.13c-0.8-0.2-1.61-0.27-2.42-0.22c-1-1.22-2.35-2.11-3.9-2.55
	l-1.08-0.31c-2.02-0.58-4.15-0.34-5.99,0.69c-1.84,1.02-3.17,2.7-3.74,4.7l-13.34,46.03c-2.22-0.52-4.43-1.01-6.64-1.48
	c2.74-4.44,4.9-9.6,6.26-15.27c2.32-9.71,1.87-19.55-1.25-27.7c-3.42-8.94-9.62-14.89-17.45-16.76c-7.83-1.87-16.05,0.65-23.13,7.08
	c-6.46,5.87-11.29,14.45-13.61,24.16c-1.78,7.47-1.85,14.88-0.49,21.47c-60.27-4.24-109.74,7.43-136.82,16.06
	c-44.4-2-79.92-39.67-79.92-85.7c0-39.69,29.63-64.46,58.62-75.01c1.14,17.53,6.85,34.33,16.69,48.94c1.58,2.35,3.28,4.66,5.06,6.86
	c2.67,3.31,6.58,5.04,10.52,5.04c2.99,0,5.99-0.99,8.49-3.02c5.81-4.71,6.71-13.25,2.01-19.07c-1.29-1.6-2.53-3.28-3.68-4.99
	c-8.03-11.92-12.28-25.87-12.28-40.32c0-39.78,32.27-72.14,71.93-72.14c19.21,0,37.28,7.5,50.86,21.13
	c2.35,2.36,4.55,4.89,6.55,7.54c4.5,5.97,12.98,7.15,18.94,2.64c5.96-4.52,7.13-13.02,2.63-19c-0.75-1-1.53-1.99-2.33-2.96
	c1.53-0.16,3.06-0.29,4.6-0.36c35.39-1.51,65.9,22.96,73.28,56.46c-5.99,0.34-11.23,4.66-12.48,10.83
	c-1.49,7.34,3.24,14.5,10.56,15.99l9.42,1.92c0.1,0.02,0.2,0.04,0.29,0.06c47.19,8.53,67.31,30.68,67.24,74.05
	C3707.78,515.18,3676.67,549.68,3637.77,556.44z"/>
<path class="st10" d="M3573.92,494.32c-12.08-2.88-25.3,9.12-29.51,26.8c-3.76,15.79,0.92,30.76,10.57,35.84l-28.37,87.54
	c0,0-11.6,22,2.57,27.25c14.18,5.25,15.68-15,16.68-24.25c0.9-8.29,13.03-74.99,15.54-88.76c11.28,0.64,22.87-10.84,26.76-27.19
	C3592.38,513.87,3586,497.2,3573.92,494.32z"/>
<path class="st10" d="M3639.24,510.37l-0.98-0.19c-1.01-0.2-2,0.47-2.2,1.48l-8.46,42.81c0.01,0.09,0.03,0.18,0.03,0.27
	c0,0.5-0.13,0.96-0.35,1.37l-0.01,0.05l-0.02,0c-0.5,0.9-1.45,1.52-2.56,1.52c-1.62,0-2.93-1.31-2.93-2.93
	c0-0.02,0.01-0.04,0.01-0.05l-0.07-0.02l0.12-0.47c0.01-0.05,0.03-0.11,0.04-0.16l10.55-42.71c0.25-1-0.37-2.02-1.37-2.27
	l-0.52-0.13c-1-0.25-2.02,0.37-2.27,1.37l-10.36,41.94c0.03,0.13,0.05,0.26,0.05,0.39c0,0.92-0.75,1.67-1.67,1.67
	c-0.92,0-1.67-0.75-1.67-1.67c0-0.36,0.11-0.68,0.3-0.96l10.4-42.1c0.25-1-0.37-2.02-1.37-2.27l-0.52-0.13
	c-1-0.25-2.02,0.37-2.27,1.37l-10.28,41.6c0,0.04,0.01,0.08,0.01,0.12c0,0.5-0.14,0.95-0.38,1.35l-0.01,0.06l-0.02,0
	c-0.48,0.78-1.32,1.3-2.3,1.3c-1.49,0-2.71-1.21-2.71-2.71c0-0.6,0.2-1.15,0.53-1.59l12.17-41.99c0.28-0.99-0.29-2.03-1.29-2.32
	l-1.08-0.31c-0.99-0.28-2.04,0.29-2.32,1.29L3600,551.88c-0.07,0.26-0.09,0.51-0.05,0.76c-2.11,11.9,6.36,16.48,10.16,17.91
	l-2.13-0.59l-28.37,87.54c0,0-11.6,22,2.57,27.25c14.18,5.25,15.68-15,16.68-24.25c0.9-8.29,13.03-74.99,15.54-88.76l-0.64-0.18
	c10.7,2.16,15.29-5.21,17.11-10.11c0.16-0.22,0.28-0.47,0.34-0.75l0.11-0.58c0.49-1.59,0.65-2.7,0.65-2.7l-0.12-0.03l8.86-44.82
	C3640.92,511.56,3640.25,510.57,3639.24,510.37z"/>
<g>
	<path class="st13" d="M3765.44,782.89c0,19.1-5.39,33.71-16.17,43.82c-10.78,10.12-26.11,15.18-45.99,15.18h-30.08v46.64h-33.99
		V727.53h66.7c19.44,0,34.22,4.63,44.34,13.9C3760.38,750.7,3765.44,764.52,3765.44,782.89z M3673.2,813.25h15
		c14.02,0,24.51-2.38,31.47-7.14c6.96-4.76,10.44-11.7,10.44-20.8c0-9.19-2.92-15.97-8.75-20.36c-5.83-4.38-14.98-6.58-27.42-6.58
		h-20.74V813.25z"/>
	<path class="st13" d="M4019.13,850.29c0,12.46-4.24,21.94-12.71,28.46c-8.48,6.52-21.15,9.78-38.03,9.78
		c-8.65,0-16.03-0.6-22.13-1.79c-6.1-1.2-11.81-2.95-17.13-5.27v-27.38c6.03,2.9,12.82,5.32,20.37,7.28
		c7.55,1.95,14.2,2.93,19.95,2.93c11.77,0,17.66-3.48,17.66-10.43c0-2.61-0.78-4.72-2.34-6.36c-1.56-1.63-4.25-3.48-8.08-5.54
		c-3.83-2.06-8.94-4.47-15.32-7.22c-9.15-3.91-15.87-7.53-20.16-10.86c-4.29-3.33-7.41-7.15-9.36-11.46
		c-1.95-4.31-2.93-9.61-2.93-15.91c0-10.79,4.1-19.13,12.29-25.04c8.19-5.9,19.8-8.85,34.84-8.85c14.33,0,28.26,3.19,41.81,9.56
		l-9.79,23.9c-5.96-2.61-11.53-4.74-16.7-6.41c-5.18-1.67-10.46-2.5-15.85-2.5c-9.58,0-14.37,2.64-14.37,7.93
		c0,2.97,1.54,5.54,4.63,7.71c3.08,2.17,9.84,5.4,20.27,9.67c9.29,3.84,16.1,7.43,20.43,10.75c4.33,3.33,7.52,7.17,9.58,11.52
		C4018.1,839.1,4019.13,844.28,4019.13,850.29z"/>
	<path class="st13" d="M3901.94,794.31c-5.88-9.94-14.06-17.8-24.53-23.6c-10.48-5.8-21.68-8.69-33.58-8.69
		c-16.47,0-31.05,5.57-43.73,16.71c-14.46,12.8-21.69,28.79-21.69,47.98c0,17.92,6.4,33.14,19.2,45.67
		c12.8,12.53,28.25,18.8,46.34,18.8c12.3,0,23.55-2.84,33.76-8.52c10.21-5.68,18.27-13.57,24.19-23.65
		c5.92-10.09,8.87-20.92,8.87-32.52C3910.75,814.97,3907.81,804.25,3901.94,794.31z M3866.6,852.46
		c-5.94,6.7-13.39,10.05-22.35,10.05c-8.95,0-16.35-3.31-22.19-9.94c-5.84-6.62-8.76-15.28-8.76-25.97
		c0-10.39,2.95-18.91,8.87-25.57c5.91-6.66,13.31-9.99,22.19-9.99c9.09,0,16.56,3.29,22.4,9.88c5.84,6.59,8.76,15.15,8.76,25.69
		C3875.52,837.14,3872.55,845.76,3866.6,852.46z"/>
	<g>
		<linearGradient id="SVGID_8_" gradientUnits="userSpaceOnUse" x1="3109.7559" y1="836.3629" x2="3121.7559" y2="980.3629">
			<stop  offset="0" style="stop-color:#00A7E1"/>
			<stop  offset="0.495" style="stop-color:#005087"/>
			<stop  offset="0.6413" style="stop-color:#00649D"/>
			<stop  offset="0.9437" style="stop-color:#0096D4"/>
			<stop  offset="1" style="stop-color:#00A0DF"/>
		</linearGradient>
		<path class="st14" d="M3160.44,839.37l20.23,21.55c-11.58,11.54-22.52,19.54-32.82,24.01c-10.3,4.46-22.06,6.69-35.28,6.69
			c-24.37,0-44.32-7.89-59.84-23.67c-15.52-15.78-23.29-36-23.29-60.66c0-15.96,3.53-30.14,10.6-42.55
			c7.07-12.4,17.19-22.38,30.37-29.92c13.18-7.54,27.37-11.32,42.58-11.32c12.93,0,25.38,2.79,37.35,8.36
			c11.97,5.58,22.29,13.51,30.96,23.79l-20.87,20.32l-2.83,2.66c-9.1-12.99-24.18-21.49-41.24-21.49
			c-27.79,0-50.31,22.52-50.31,50.31c0,27.79,22.52,50.31,50.31,50.31c16.65,0,31.42-8.09,40.57-20.56l0.49-0.63L3160.44,839.37z"/>
		<linearGradient id="SVGID_9_" gradientUnits="userSpaceOnUse" x1="3218.0188" y1="827.341" x2="3230.0188" y2="971.341">
			<stop  offset="0" style="stop-color:#00A7E1"/>
			<stop  offset="0.495" style="stop-color:#005087"/>
			<stop  offset="0.6413" style="stop-color:#00649D"/>
			<stop  offset="0.9437" style="stop-color:#0096D4"/>
			<stop  offset="1" style="stop-color:#00A0DF"/>
		</linearGradient>
		<rect x="3200.57" y="765.53" class="st15" width="35.02" height="125.08"/>
		<linearGradient id="SVGID_10_" gradientUnits="userSpaceOnUse" x1="3548.3911" y1="799.81" x2="3560.3911" y2="943.81">
			<stop  offset="0" style="stop-color:#00A7E1"/>
			<stop  offset="0.495" style="stop-color:#005087"/>
			<stop  offset="0.6413" style="stop-color:#00649D"/>
			<stop  offset="0.9437" style="stop-color:#0096D4"/>
			<stop  offset="1" style="stop-color:#00A0DF"/>
		</linearGradient>
		<path class="st16" d="M3607.95,793.74c-5.88-9.94-14.06-17.8-24.53-23.6c-10.48-5.8-21.68-8.69-33.58-8.69
			c-16.47,0-31.05,5.57-43.73,16.71c-14.46,12.8-21.69,28.79-21.69,47.98c0,17.92,6.4,33.14,19.2,45.67
			c12.8,12.53,28.25,18.8,46.34,18.8c12.3,0,23.55-2.84,33.76-8.52c10.21-5.68,18.27-13.57,24.19-23.65
			c5.92-10.09,8.87-20.92,8.87-32.52C3616.77,814.4,3613.83,803.67,3607.95,793.74z M3572.62,851.88
			c-5.94,6.7-13.39,10.05-22.35,10.05c-8.95,0-16.35-3.31-22.19-9.94c-5.84-6.62-8.76-15.28-8.76-25.97
			c0-10.39,2.95-18.91,8.87-25.57c5.91-6.66,13.31-9.99,22.19-9.99c9.09,0,16.56,3.29,22.4,9.88c5.84,6.59,8.76,15.15,8.76,25.69
			C3581.53,836.57,3578.56,845.18,3572.62,851.88z"/>
		<linearGradient id="SVGID_11_" gradientUnits="userSpaceOnUse" x1="3434.9077" y1="809.2669" x2="3446.9077" y2="953.2669">
			<stop  offset="0" style="stop-color:#00A7E1"/>
			<stop  offset="0.495" style="stop-color:#005087"/>
			<stop  offset="0.6413" style="stop-color:#00649D"/>
			<stop  offset="0.9437" style="stop-color:#0096D4"/>
			<stop  offset="1" style="stop-color:#00A0DF"/>
		</linearGradient>
		<path class="st17" d="M3401.09,727.95h34.65v122.31c0,0-0.21,11.43,12.7,11.43c12.91,0,17.35-8.04,17.35-8.04l12.06,23.07
			c0,0-13.75,13.9-35.97,13.9c-22.22,0-39.36-16.02-39.99-29.98C3401.25,846.66,3401.09,727.95,3401.09,727.95z"/>
		<g>
			<linearGradient id="SVGID_12_" gradientUnits="userSpaceOnUse" x1="3224.5652" y1="826.7955" x2="3236.5652" y2="970.7955">
				<stop  offset="0" style="stop-color:#00A7E1"/>
				<stop  offset="0.495" style="stop-color:#005087"/>
				<stop  offset="0.6413" style="stop-color:#00649D"/>
				<stop  offset="0.9437" style="stop-color:#0096D4"/>
				<stop  offset="1" style="stop-color:#00A0DF"/>
			</linearGradient>
			<path class="st18" d="M3216.8,713.13c5.62,0,10.45,2.08,14.47,6.24c4.02,4.16,6.04,9.2,6.04,15.12c0,5.84-1.99,10.82-5.98,14.94
				c-3.98,4.12-8.75,6.18-14.3,6.18c-5.7,0-10.57-2.1-14.59-6.3c-4.02-4.2-6.03-9.3-6.03-15.3c0-5.76,1.99-10.68,5.98-14.76
				C3206.37,715.17,3211.17,713.13,3216.8,713.13z"/>
			<linearGradient id="SVGID_13_" gradientUnits="userSpaceOnUse" x1="3317.9744" y1="819.0114" x2="3329.9744" y2="963.0114">
				<stop  offset="0" style="stop-color:#00A7E1"/>
				<stop  offset="0.495" style="stop-color:#005087"/>
				<stop  offset="0.6413" style="stop-color:#00649D"/>
				<stop  offset="0.9437" style="stop-color:#0096D4"/>
				<stop  offset="1" style="stop-color:#00A0DF"/>
			</linearGradient>
			<path class="st19" d="M3327.92,862.53c-24.76,5.71-28.57-10.47-28.57-10.47l81.57-33.33c-4.76-61.89-62.53-60.94-81.26-53.2
				c-16.46,6.8-43.8,23.68-43.8,60.5c0,36.82,23.17,64.58,63.8,64.58s55.55-24.91,55.55-24.91l-20.63-20.31
				C3354.59,845.39,3352.68,856.82,3327.92,862.53z M3308.66,794.93c20.63-8.25,35.45,5.07,36.72,11.42l-55.86,21.72
				C3289.52,828.07,3288.03,803.18,3308.66,794.93z"/>
		</g>
	</g>
</g>
<g>
	<path class="st13" d="M6545.76,738.73c0,16.29-4.6,28.74-13.79,37.37c-9.19,8.63-22.27,12.94-39.22,12.94h-25.65v39.78h-28.98
		V691.53H6495c16.58,0,29.18,3.95,37.82,11.85C6541.45,711.28,6545.76,723.07,6545.76,738.73z M6467.1,764.63h12.79
		c11.96,0,20.9-2.03,26.84-6.09c5.94-4.06,8.9-9.98,8.9-17.74c0-7.84-2.49-13.62-7.46-17.36c-4.97-3.74-12.77-5.61-23.39-5.61
		h-17.68V764.63z"/>
	<path class="st13" d="M6762.11,796.21c0,10.62-3.61,18.71-10.84,24.27c-7.23,5.56-18.04,8.34-32.44,8.34
		c-7.38,0-13.67-0.51-18.87-1.53c-5.2-1.02-10.07-2.52-14.61-4.49v-23.35c5.14,2.47,10.93,4.54,17.37,6.21
		c6.44,1.67,12.11,2.5,17.01,2.5c10.04,0,15.06-2.97,15.06-8.89c0-2.22-0.67-4.03-2-5.42c-1.33-1.39-3.63-2.96-6.89-4.72
		c-3.27-1.76-7.62-3.81-13.07-6.16c-7.8-3.34-13.54-6.42-17.19-9.26c-3.66-2.84-6.32-6.1-7.98-9.77c-1.67-3.67-2.5-8.2-2.5-13.57
		c0-9.2,3.49-16.32,10.48-21.35c6.99-5.03,16.89-7.55,29.71-7.55c12.22,0,24.1,2.72,35.66,8.15l-8.35,20.38
		c-5.08-2.22-9.83-4.04-14.24-5.46c-4.42-1.42-8.92-2.13-13.52-2.13c-8.17,0-12.25,2.25-12.25,6.76c0,2.53,1.32,4.72,3.95,6.58
		c2.63,1.85,8.39,4.6,17.28,8.24c7.92,3.27,13.73,6.33,17.42,9.17c3.69,2.84,6.41,6.11,8.17,9.82
		C6761.23,786.67,6762.11,791.08,6762.11,796.21z"/>
	<path class="st13" d="M6662.17,748.47c-5.01-8.47-11.99-15.18-20.92-20.12c-8.94-4.94-18.48-7.41-28.64-7.41
		c-14.05,0-26.48,4.75-37.3,14.25c-12.33,10.91-18.5,24.55-18.5,40.92c0,15.28,5.46,28.26,16.37,38.95
		c10.91,10.69,24.09,16.03,39.52,16.03c10.49,0,20.08-2.42,28.79-7.27c8.71-4.85,15.58-11.57,20.63-20.17
		c5.04-8.6,7.57-17.84,7.57-27.73C6669.69,766.09,6667.18,756.95,6662.17,748.47z M6632.04,798.06c-5.07,5.71-11.42,8.57-19.06,8.57
		c-7.64,0-13.94-2.82-18.92-8.47c-4.98-5.65-7.47-13.03-7.47-22.15c0-8.86,2.52-16.13,7.56-21.81c5.04-5.68,11.35-8.52,18.92-8.52
		c7.75,0,14.12,2.81,19.1,8.43c4.98,5.62,7.47,12.92,7.47,21.91C6639.64,785,6637.11,792.35,6632.04,798.06z"/>
	<g>
		<linearGradient id="SVGID_14_" gradientUnits="userSpaceOnUse" x1="5986.6006" y1="784.3359" x2="5996.834" y2="907.1387">
			<stop  offset="0" style="stop-color:#00A7E1"/>
			<stop  offset="0.495" style="stop-color:#005087"/>
			<stop  offset="0.6413" style="stop-color:#00649D"/>
			<stop  offset="0.9437" style="stop-color:#0096D4"/>
			<stop  offset="1" style="stop-color:#00A0DF"/>
		</linearGradient>
		<path class="st20" d="M6029.82,786.9l17.25,18.38c-9.88,9.84-19.21,16.67-27.99,20.47c-8.79,3.8-18.81,5.71-30.08,5.71
			c-20.78,0-37.79-6.73-51.03-20.18c-13.24-13.46-19.86-30.7-19.86-51.73c0-13.61,3.01-25.7,9.04-36.28
			c6.03-10.58,14.66-19.08,25.9-25.52c11.24-6.43,23.34-9.65,36.31-9.65c11.03,0,21.64,2.38,31.85,7.13
			c10.21,4.76,19.01,11.52,26.4,20.29l-17.8,17.33l-2.41,2.27c-7.76-11.08-20.62-18.32-35.17-18.32c-23.7,0-42.9,19.21-42.9,42.9
			c0,23.7,19.21,42.9,42.9,42.9c14.2,0,26.79-6.9,34.6-17.53l0.42-0.54L6029.82,786.9z"/>
		<linearGradient id="SVGID_15_" gradientUnits="userSpaceOnUse" x1="6078.9268" y1="776.642" x2="6089.1606" y2="899.4449">
			<stop  offset="0" style="stop-color:#00A7E1"/>
			<stop  offset="0.495" style="stop-color:#005087"/>
			<stop  offset="0.6413" style="stop-color:#00649D"/>
			<stop  offset="0.9437" style="stop-color:#0096D4"/>
			<stop  offset="1" style="stop-color:#00A0DF"/>
		</linearGradient>
		<rect x="6064.05" y="723.93" class="st21" width="29.86" height="106.67"/>
		<linearGradient id="SVGID_16_" gradientUnits="userSpaceOnUse" x1="6360.6675" y1="753.1636" x2="6370.9014" y2="875.9665">
			<stop  offset="0" style="stop-color:#00A7E1"/>
			<stop  offset="0.495" style="stop-color:#005087"/>
			<stop  offset="0.6413" style="stop-color:#00649D"/>
			<stop  offset="0.9437" style="stop-color:#0096D4"/>
			<stop  offset="1" style="stop-color:#00A0DF"/>
		</linearGradient>
		<path class="st22" d="M6411.46,747.98c-5.01-8.47-11.99-15.18-20.92-20.12c-8.94-4.94-18.48-7.41-28.64-7.41
			c-14.05,0-26.48,4.75-37.3,14.25c-12.33,10.91-18.5,24.55-18.5,40.92c0,15.28,5.46,28.26,16.37,38.95
			c10.91,10.69,24.09,16.03,39.52,16.03c10.49,0,20.08-2.42,28.79-7.27c8.71-4.85,15.58-11.57,20.63-20.17
			c5.04-8.6,7.57-17.84,7.57-27.73C6418.98,765.6,6416.47,756.46,6411.46,747.98z M6381.33,797.57c-5.07,5.71-11.42,8.57-19.06,8.57
			c-7.64,0-13.94-2.82-18.92-8.47c-4.98-5.65-7.47-13.03-7.47-22.15c0-8.86,2.52-16.13,7.56-21.81c5.04-5.68,11.35-8.52,18.92-8.52
			c7.75,0,14.12,2.81,19.1,8.43c4.98,5.62,7.47,12.92,7.47,21.91C6388.93,784.51,6386.4,791.86,6381.33,797.57z"/>
		<linearGradient id="SVGID_17_" gradientUnits="userSpaceOnUse" x1="6263.8892" y1="761.2285" x2="6274.1226" y2="884.0314">
			<stop  offset="0" style="stop-color:#00A7E1"/>
			<stop  offset="0.495" style="stop-color:#005087"/>
			<stop  offset="0.6413" style="stop-color:#00649D"/>
			<stop  offset="0.9437" style="stop-color:#0096D4"/>
			<stop  offset="1" style="stop-color:#00A0DF"/>
		</linearGradient>
		<path class="st23" d="M6235.05,691.88h29.55v104.3c0,0-0.18,9.74,10.83,9.74c11.01,0,14.8-6.86,14.8-6.86l10.29,19.67
			c0,0-11.73,11.86-30.68,11.86c-18.95,0-33.57-13.66-34.11-25.57C6235.18,793.12,6235.05,691.88,6235.05,691.88z"/>
		<g>
			<linearGradient id="SVGID_18_" gradientUnits="userSpaceOnUse" x1="6084.5098" y1="776.1768" x2="6094.7432" y2="898.9797">
				<stop  offset="0" style="stop-color:#00A7E1"/>
				<stop  offset="0.495" style="stop-color:#005087"/>
				<stop  offset="0.6413" style="stop-color:#00649D"/>
				<stop  offset="0.9437" style="stop-color:#0096D4"/>
				<stop  offset="1" style="stop-color:#00A0DF"/>
			</linearGradient>
			<path class="st24" d="M6077.88,679.24c4.8,0,8.91,1.78,12.34,5.32c3.43,3.55,5.15,7.85,5.15,12.89c0,4.98-1.7,9.23-5.1,12.74
				c-3.4,3.51-7.46,5.27-12.19,5.27c-4.86,0-9.01-1.79-12.44-5.37c-3.43-3.58-5.15-7.93-5.15-13.05c0-4.91,1.7-9.11,5.1-12.59
				C6068.99,680.98,6073.09,679.24,6077.88,679.24z"/>
			<linearGradient id="SVGID_19_" gradientUnits="userSpaceOnUse" x1="6164.1689" y1="769.5385" x2="6174.4023" y2="892.3414">
				<stop  offset="0" style="stop-color:#00A7E1"/>
				<stop  offset="0.495" style="stop-color:#005087"/>
				<stop  offset="0.6413" style="stop-color:#00649D"/>
				<stop  offset="0.9437" style="stop-color:#0096D4"/>
				<stop  offset="1" style="stop-color:#00A0DF"/>
			</linearGradient>
			<path class="st25" d="M6172.65,806.65c-21.11,4.87-24.36-8.93-24.36-8.93l69.57-28.42c-4.06-52.78-53.33-51.97-69.3-45.37
				c-14.03,5.8-37.35,20.19-37.35,51.59s19.76,55.08,54.41,55.08s47.37-21.24,47.37-21.24l-17.59-17.32
				C6195.39,792.03,6193.77,801.78,6172.65,806.65z M6156.23,749c17.59-7.04,30.23,4.32,31.31,9.74l-47.64,18.52
				C6139.9,777.26,6138.63,756.04,6156.23,749z"/>
		</g>
	</g>
</g>
<path class="st6" d="M5027.23,628.3h-210.75l-55.83-210.31h57.79l24.33-27.98h-89.55l-11.52-43.4c-1.09-4.11-4.22-7.37-8.28-8.63
	L4665.54,317c-6.51-2.01-13.42,1.63-15.44,8.15c-2.01,6.51,1.63,13.42,8.15,15.44l61.35,18.96l75.45,284.26
	c1.44,5.41,6.33,9.18,11.93,9.18h220.24c6.82,0,12.34-5.53,12.34-12.34C5039.57,633.83,5034.05,628.3,5027.23,628.3z"/>
<circle class="st6" cx="5024.72" cy="644.39" r="33.74"/>
<circle class="st10" cx="5025.54" cy="644.35" r="21.8"/>
<circle class="st6" cx="4816.48" cy="644.39" r="33.74"/>
<circle class="st10" cx="4817.31" cy="644.35" r="21.8"/>
<path class="st6" d="M4913.03,414.87l-23.83-23.83c-3.18-3.18-8.37-3.18-11.55,0l-0.6,0.6c-2.88,2.88-3.14,7.42-0.8,10.61l-4.4,4.4
	c-3.84-0.91-8.04,0.13-11.03,3.12l-42.78,42.78c-4.6,4.6-4.6,12.05,0,16.64l17.78,17.78c4.6,4.6,12.05,4.6,16.64,0l42.78-42.78
	c2.64-2.64,3.76-6.23,3.36-9.67l5.52-5.52c2.83,0.92,6.07,0.26,8.31-1.98l0.6-0.6C4916.2,423.24,4916.2,418.04,4913.03,414.87z"/>
<path class="st10" d="M4831.86,463.25c-0.9,0-1.8-0.35-2.49-1.04c-1.36-1.37-1.35-3.59,0.03-4.95l35.04-34.63
	c1.37-1.36,3.59-1.35,4.95,0.03c1.36,1.37,1.35,3.59-0.03,4.95l-35.04,34.63C4833.64,462.91,4832.75,463.25,4831.86,463.25z"/>
<path class="st10" d="M4844.56,477.66c-0.9,0-1.8-0.35-2.49-1.04c-1.36-1.37-1.35-3.59,0.03-4.95l35.04-34.63
	c1.37-1.36,3.59-1.35,4.95,0.03c1.36,1.37,1.35,3.59-0.03,4.95l-35.04,34.63C4846.34,477.32,4845.45,477.66,4844.56,477.66z"/>
<rect x="4896.69" y="365.02" transform="matrix(0.7071 -0.7071 0.7071 0.7071 1179.4 3595.9902)" class="st6" width="67.5" height="18.62"/>
<path class="st6" d="M4967.32,321.13l16.79,15.21l-15,20.67c0,0-8.83,11.5-16,4.83c-7.17-6.67-20-14-3.67-26.67
	C4965.08,323.04,4967.32,321.13,4967.32,321.13z"/>
<path class="st13" d="M6454.04,404.91c-4.34-43.3-41.75-76.33-85.7-74.43c-6.04,0.26-12.05,1.18-17.85,2.73
	c-1.84,0.49-3.45,1.42-4.75,2.63c-13.11-8.37-28.33-12.88-44.24-12.88c-39.59,0-72.75,28.08-80.75,65.41
	c-1.81-0.35-3.74-0.27-5.62,0.34c-18.97,6.16-35.3,16.77-47.24,30.7c-13.28,15.5-20.3,34.34-20.3,54.48
	c0,44.27,30.08,81.51,70.49,91.56c-0.03,23.45-0.08,70.66,0.02,76.13c0.14,7.31,13.24,11.72,13.24,11.72
	c52.96,27.72,133.23,21.51,133.23,21.51c-61.23-4.55-115.43-20.27-129.09-30.2c-10.44-7.59,8.86-13.73,50.97-16.2
	c-11.52-11.55-18.64-27.48-18.64-45.08c0-20.11,9.31-38.04,23.84-49.74c-23.1,2.83-41.95,7.73-54.78,11.82
	c-37.05-1.67-66.7-33.11-66.7-71.53c0-33.12,24.73-53.8,48.92-62.6c0.95,14.63,5.71,28.65,13.93,40.84
	c1.32,1.96,2.74,3.89,4.22,5.72c2.23,2.77,5.49,4.2,8.78,4.2c2.49,0,5-0.82,7.09-2.52c4.85-3.93,5.6-11.06,1.68-15.92
	c-1.08-1.34-2.11-2.74-3.07-4.16c-6.7-9.95-10.25-21.59-10.25-33.65c0-33.2,26.93-60.21,60.04-60.21c16.04,0,31.11,6.26,42.45,17.63
	c1.96,1.97,3.8,4.08,5.46,6.29c3.76,4.98,10.83,5.97,15.81,2.2c4.97-3.77,5.95-10.87,2.19-15.85c-0.63-0.84-1.28-1.66-1.95-2.47
	c1.28-0.14,2.55-0.24,3.84-0.3c29.54-1.26,55,19.16,61.16,47.12c-5,0.28-9.37,3.89-10.42,9.04c-1.24,6.13,2.7,12.1,8.81,13.35
	l7.86,1.6c0.08,0.02,0.16,0.03,0.25,0.05c39.39,7.12,56.17,25.6,56.12,61.8c-0.03,24.02-26,52.81-58.47,58.45
	c0,0-36.86-8.72-64.01-11.68c15.1,11.67,24.83,29.95,24.83,50.52c0,18.47-7.85,35.09-20.39,46.75c9.65,0.96,20.35,2.24,31.47,3.94
	c25.2,4.88,38.68,10.59,38.68,10.59v-79.16c40.95-10.08,70.4-46.97,70.44-79.37C6515.72,442.89,6495.52,416.23,6454.04,404.91z"/>
<g>
	<linearGradient id="SVGID_20_" gradientUnits="userSpaceOnUse" x1="6320.1055" y1="576.6173" x2="6401.1011" y2="624.6149">
		<stop  offset="0" style="stop-color:#00A7E1"/>
		<stop  offset="0.495" style="stop-color:#005087"/>
		<stop  offset="0.6413" style="stop-color:#00649D"/>
		<stop  offset="0.9437" style="stop-color:#0096D4"/>
		<stop  offset="1" style="stop-color:#00A0DF"/>
	</linearGradient>
	<path class="st26" d="M6318.02,575.76l11.56,11.32l7.09-1.97l2.1-7.71l-11.3-11.14c1.59-0.56,3.31-0.87,5.09-0.87
		c8.49,0,15.38,6.89,15.38,15.38c0,1.64-0.26,3.21-0.73,4.69c0.18,0.13,0.35,0.27,0.51,0.43l31.34,31.34c1.73,1.73,1.73,4.55,0,6.28
		l-3.3,3.3c-1.73,1.73-4.55,1.73-6.28,0l-31.34-31.34c-0.09-0.09-0.17-0.18-0.25-0.27c-1.66,0.61-3.45,0.95-5.33,0.95
		c-8.5,0-15.38-6.89-15.38-15.38C6317.18,579.02,6317.48,577.33,6318.02,575.76z"/>
	<linearGradient id="SVGID_21_" gradientUnits="userSpaceOnUse" x1="6321.1128" y1="574.9168" x2="6402.1089" y2="622.9144">
		<stop  offset="0" style="stop-color:#00A7E1"/>
		<stop  offset="0.495" style="stop-color:#005087"/>
		<stop  offset="0.6413" style="stop-color:#00649D"/>
		<stop  offset="0.9437" style="stop-color:#0096D4"/>
		<stop  offset="1" style="stop-color:#00A0DF"/>
	</linearGradient>
	<path class="st27" d="M6377.95,572.89h-7.6c-1.03-4.8-2.95-9.28-5.57-13.25l5.43-5.43c1.51-1.51,1.51-3.95,0-5.45l-6.21-6.21
		c-1.51-1.51-3.95-1.51-5.46,0l-5.56,5.56c-3.95-2.5-8.38-4.31-13.12-5.25v-8.04c0-2.13-1.73-3.86-3.86-3.86h-8.79
		c-2.13,0-3.86,1.73-3.86,3.86v8.29c-4.59,1.06-8.87,2.92-12.69,5.44l-6-6c-1.51-1.51-3.95-1.51-5.45,0l-6.21,6.21
		c-1.51,1.51-1.51,3.95,0,5.45l6.12,6.12c-2.4,3.8-4.16,8.03-5.13,12.56h-8.72c-2.13,0-3.86,1.73-3.86,3.86v8.79
		c0,2.13,1.73,3.86,3.86,3.86h8.72c0.97,4.53,2.74,8.77,5.13,12.56l-6.12,6.12c-1.51,1.51-1.51,3.95,0,5.45l6.21,6.21
		c1.51,1.51,3.95,1.51,5.45,0l6-6c3.81,2.52,8.09,4.38,12.69,5.44v8.29c0,2.13,1.73,3.86,3.86,3.86h8.79c2.13,0,3.86-1.73,3.86-3.86
		v-8.04c4.14-0.83,8.05-2.31,11.6-4.34l-15.56-14.43c-1.38,0.3-2.82,0.47-4.29,0.47c-11.05,0-20-8.96-20-20c0-11.05,8.96-20,20-20
		c11.05,0,20,8.96,20,20c0,1.43-0.16,2.83-0.44,4.17l15.42,14.29c1.7-3.17,2.98-6.6,3.76-10.22h7.6c2.13,0,3.86-1.73,3.86-3.86
		v-8.79C6381.81,574.61,6380.08,572.89,6377.95,572.89z"/>
</g>
<path class="st6" d="M5014.89,375.42l-30.43,31.08l5.31,19.08l20.74,5.64l29.95-30.38c1.5,4.28,2.33,8.89,2.33,13.69
	c0,22.84-18.52,41.36-41.36,41.36c-4.4,0-8.64-0.69-12.61-1.97c-0.35,0.47-0.73,0.94-1.15,1.37l-84.28,84.28
	c-4.65,4.65-12.25,4.65-16.89,0l-8.89-8.89c-4.65-4.64-4.65-12.25,0-16.89l84.28-84.28c0.24-0.24,0.48-0.45,0.73-0.66
	c-1.65-4.46-2.55-9.29-2.55-14.32c0-22.84,18.52-41.36,41.36-41.36C5006.14,373.16,5010.67,373.96,5014.89,375.42z"/>
<path class="st6" d="M5053.42,503.49h-6.82c-0.79-3.62-2.19-7-4.1-10.05l4.82-4.82c1.12-1.12,1.12-2.94,0-4.07l-5.75-5.75
	c-1.12-1.12-2.94-1.12-4.07,0l-4.78,4.78c-3.06-1.96-6.48-3.41-10.15-4.22v-6.71c0-1.59-1.29-2.88-2.88-2.88h-8.13
	c-1.59,0-2.88,1.29-2.88,2.88v6.74c-3.83,0.87-7.41,2.42-10.57,4.54c-0.07-0.09-0.13-0.18-0.21-0.26l-4.86-4.86
	c-1.12-1.12-2.94-1.12-4.07,0l-5.75,5.75c-1.12,1.12-1.12,2.94,0,4.07l4.86,4.86c0.16,0.16,0.33,0.29,0.52,0.4
	c-1.77,2.93-3.07,6.16-3.82,9.61c-0.02,0-0.04-0.01-0.06-0.01h-6.88c-1.59,0-2.88,1.29-2.88,2.88v8.13c0,1.59,1.29,2.88,2.88,2.88
	h6.88c0.05,0,0.1-0.01,0.15-0.02c0.82,3.58,2.25,6.92,4.18,9.92c-0.04,0.04-0.09,0.06-0.13,0.1l-4.86,4.86
	c-1.12,1.12-1.12,2.94,0,4.07l5.75,5.75c1.12,1.12,2.94,1.12,4.07,0l4.86-4.86c0.05-0.05,0.09-0.12,0.14-0.17
	c2.98,1.87,6.29,3.26,9.83,4.06c-0.01,0.09-0.03,0.17-0.03,0.26v6.88c0,1.59,1.29,2.88,2.88,2.88h8.13c1.59,0,2.88-1.29,2.88-2.88
	v-6.88c0-0.08-0.02-0.16-0.02-0.23c3.37-0.75,6.54-2.02,9.41-3.75l4.7,4.7c1.12,1.12,2.94,1.12,4.07,0l5.75-5.75
	c1.12-1.12,1.12-2.94,0-4.07l-4.47-4.47c2.08-3.12,3.62-6.63,4.49-10.4c0.01,0,0.03,0,0.04,0h6.88c1.59,0,2.88-1.29,2.88-2.88v-8.13
	C5056.3,504.78,5055.01,503.49,5053.42,503.49z M5015.65,527.51c-9.43,0-17.08-7.65-17.08-17.08s7.65-17.08,17.08-17.08
	c9.44,0,17.08,7.65,17.08,17.08S5025.09,527.51,5015.65,527.51z"/>
</svg>
